<svg xmlns="http://www.w3.org/2000/svg" viewBox="0 0 320 300" fill="none" stroke-linecap="round" stroke-linejoin="round">
  <g id="asteroid">
    <path d="M30 250 C30 205 90 186 160 186 C230 186 290 205 290 250 C290 284 236 298 160 298 C84 298 30 284 30 250 Z" fill="#FFFFFF" stroke="#0F172A" stroke-width="2.5"/>
    <ellipse cx="96" cy="250" rx="13" ry="5" stroke="#0F172A" stroke-width="2"/>
    <path d="M228 222 q9 3 13 10" stroke="#0F172A" stroke-width="2"/>
    <circle cx="190" cy="276" r="2.5" fill="#0F172A"/>
    <ellipse cx="150" cy="282" rx="8" ry="3.5" stroke="#0F172A" stroke-width="2"/>
  </g>
  <g id="sprout">
    <path d="M250 200 C250 190 251 182 254 174" stroke="#0F172A" stroke-width="2.5"/>
    <path d="M253 182 C244 174 232 174 226 180 C234 188 246 188 253 182 Z" fill="LEAF" stroke="#0F172A" stroke-width="2"/>
    <path d="M254 174 C260 164 272 162 280 166 C274 176 262 178 254 174 Z" fill="ACCENT" stroke="#0F172A" stroke-width="2"/>
  </g>
  <g id="traveler">
    <!-- abrigo sentado -->
    <path d="M112 112 C104 128 100 158 102 186 C120 192 148 192 160 186 C156 160 150 128 142 112 C132 108 120 108 112 112 Z" fill="#FFFFFF" stroke="#0F172A" stroke-width="2.5"/>
    <path d="M128 116 L128 150" stroke="#0F172A" stroke-width="1.8"/>
    <!-- piernas dobladas (rodillas arriba) -->
    <path d="M132 184 C140 168 158 150 180 146 C188 146 192 152 190 160 L196 186 L182 188 L176 164 C164 170 154 180 150 188 Z" fill="#FFFFFF" stroke="#0F172A" stroke-width="2.5"/>
    <path d="M178 186 C184 182 196 182 202 186 L201 191 L178 191 Z" fill="#0F172A" stroke="#0F172A" stroke-width="2"/>
    <!-- brazo abrazando rodillas -->
    <path d="M140 122 C150 134 164 142 178 148" stroke="#0F172A" stroke-width="2.5"/>
    <circle cx="180" cy="149" r="4" fill="#FFFFFF" stroke="#0F172A" stroke-width="2"/>
    <!-- cabeza mirando arriba -->
    <g id="head" transform="rotate(-14 128 82)">
      <path d="M106 84 C106 68 116 58 128 58 C141 58 150 68 150 83 C150 99 141 110 128 110 C115 110 106 100 106 84 Z" fill="#FFFFFF" stroke="#0F172A" stroke-width="2.5"/>
      <path d="M106 78 C102 70 106 62 112 62 C110 54 118 48 125 52 C128 44 140 44 142 52 C150 50 156 58 152 66 C158 70 156 78 150 80 C146 72 140 68 134 70 C130 64 122 64 118 70 C114 68 108 72 106 78 Z" fill="#FFFFFF" stroke="#0F172A" stroke-width="2.2"/>
      <path d="M154 64 q8 -2 13 -8 M156 72 q7 1 12 -3" stroke="#0F172A" stroke-width="2"/>
      <ellipse cx="122" cy="84" rx="2" ry="3" fill="#0F172A"/>
      <ellipse cx="138" cy="84" rx="2" ry="3" fill="#0F172A"/>
      <path d="M127 97 q3 2 6 0" stroke="#0F172A" stroke-width="1.8"/>
      <path d="M113 93 q3 1 5 0 M141 93 q3 1 5 0" stroke="BLUSH" stroke-width="2"/>
    </g>
  </g>
  <g id="scarf">
    <path d="M110 108 C120 116 136 116 146 108 L148 116 C138 124 118 124 108 116 Z" fill="ACCENT" stroke="#0F172A" stroke-width="2.2"/>
    <path id="scarf-tail" d="M110 114 C92 118 78 104 60 108 C42 112 32 104 18 96 C22 110 34 124 52 126 C70 128 84 124 100 132 C106 134 110 126 110 120 Z" fill="ACCENT" stroke="#0F172A" stroke-width="2.2"/>
  </g>
</svg>
